<?xml version="1.0" encoding="UTF-8"?>
<svg id="Layer_2" data-name="Layer 2" xmlns="http://www.w3.org/2000/svg" xmlns:xlink="http://www.w3.org/1999/xlink" viewBox="0 0 312.75 312.75">
  <defs>
    <style>
      .cls-1, .cls-2, .cls-3 {
        fill: #272727;
      }

      .cls-2, .cls-4, .cls-3 {
        stroke: #272727;
        stroke-miterlimit: 10;
      }

      .cls-2, .cls-3 {
        stroke-width: 5px;
      }

      .cls-5 {
        fill: #fff;
      }

      .cls-4 {
        stroke-width: 21px;
      }

      .cls-4, .cls-6 {
        fill: #d4d4d4;
      }

      .cls-7 {
        fill: url(#linear-gradient);
        opacity: .3;
      }

      .cls-3, .cls-6 {
        opacity: .2;
      }
    </style>
    <linearGradient id="linear-gradient" x1="156.37" y1="321.17" x2="156.37" y2="28.77" gradientUnits="userSpaceOnUse">
      <stop offset=".16" stop-color="#d4d4d4"/>
      <stop offset="1" stop-color="#d4d4d4" stop-opacity="0"/>
    </linearGradient>
  </defs>
  <g id="Layer_2-2" data-name="Layer 2">
    <g>
      <circle class="cls-4" cx="156.37" cy="156.37" r="145.87"/>
      <circle class="cls-7" cx="156.37" cy="156.37" r="141.04"/>
      <path class="cls-3" d="M229.94,160.4c-.34,0-.68.01-1.02.04-.43-3.44-.79-6.91-1.09-10.4-1.43-11-1.38-22.35-7.54-32.29,3.78-12.05,1.11-24.81-2.54-36.49-1.79-5.97-4.92-12.38-7.56-18.16-3.22,5.14-6.7,10.31-10.4,15.28-.15-12.13-4.58-24.17-10.46-34.78-5.08,9.51-13.36,17.24-22.31,23.58-.53-10.22-4.98-19.85-10.53-28.49-4.71,8.09-9.92,16.25-15.74,23.67-2.7,3.45-5.55,6.78-8.55,9.9-.68-6.95-2.52-13.76-5.55-20.19-22.3,16.99-43.23,36-57.23,60.69-3.22,5.88-5.81,12.25-7.27,19.06-1.31,7.57.93,14.09,3.01,20.91,3.21,10.93,9.27,21.17,11.53,32.17-13.54,3.91-14.01,22.81-9.74,34.26,2.9,12.31,19.44,21.44,31.32,14.45,13.56,32.56,52.45,44.07,84.84,36.56,29.33-7.69,44.63-35.31,50.11-62.18,8.48-2.03,14.92-11.84,14.92-23.6,0-13.23-8.16-23.99-18.2-23.99Z"/>
      <g>
        <g>
          <path class="cls-2" d="M231.14,155.88c-.34,0-.68.01-1.02.04-.43-3.44-.79-6.91-1.09-10.4-1.43-11-1.38-22.35-7.54-32.29,3.78-12.05,1.11-24.81-2.54-36.49-1.79-5.97-4.92-12.38-7.56-18.16-3.22,5.14-6.7,10.31-10.4,15.28-.15-12.13-4.58-24.17-10.46-34.78-5.08,9.51-13.36,17.24-22.31,23.58-.53-10.22-4.98-19.85-10.53-28.49-4.71,8.09-9.92,16.25-15.74,23.67-2.7,3.45-5.55,6.78-8.55,9.9-.68-6.95-2.52-13.76-5.55-20.19-22.3,16.99-43.23,36-57.23,60.69-3.22,5.88-5.81,12.25-7.27,19.06-1.31,7.57.93,14.09,3.01,20.91,3.21,10.93,9.27,21.17,11.53,32.17-13.54,3.91-14.01,22.81-9.74,34.26,2.9,12.31,19.44,21.44,31.32,14.45,13.56,32.56,52.45,44.07,84.84,36.56,29.33-7.69,44.63-35.31,50.11-62.18,8.48-2.03,14.92-11.84,14.92-23.6,0-13.23-8.16-23.99-18.2-23.99Z"/>
          <ellipse class="cls-5" cx="231.14" cy="179.87" rx="14.7" ry="20.5"/>
          <path class="cls-6" d="M227.57,159.37l5.39,41.75s17.79-10.96,12.5-25.89c-5.29-14.94-17.89-15.86-17.89-15.86Z"/>
          <path class="cls-1" d="M231.14,203.87c-10.03,0-18.2-10.76-18.2-24s8.16-24,18.2-24,18.2,10.76,18.2,24-8.16,24-18.2,24ZM231.14,162.87c-6.07,0-11.2,7.78-11.2,17s5.13,17,11.2,17,11.2-7.78,11.2-17-5.13-17-11.2-17Z"/>
          <g>
            <path class="cls-5" d="M100.37,223.23s11.5,43.45,77.4,40.22c31.65-3.23,60.53-56.05,53.42-84.15-7.11-28.1-3.23-52.96-13.89-65.56,7.43-18.41-6.46-47.15-6.46-47.15-7.43,11.63-15.5,20.35-15.5,20.35,6.14-19.05-5.17-40.05-5.17-40.05-7.11,11.63-26.16,23.25-26.16,23.25,2.58-14.21-6.32-28.42-6.32-28.42,0,0-12.74,21.96-27.92,34.88.65-13.56-3.55-22.93-3.55-22.93,0,0-51.84,38.17-59.11,74.6-2.84,14.22,16.15,45.86,15.18,55.22-15.18,1.29-14.57,19.75-9.37,32.94,3.78,9.59,18.73,17.12,27.46,6.78Z"/>
            <path class="cls-6" d="M177.83,259.37s-2.08,3.04-7.34,6.95c-28.67,2.03-59-10.21-70.58-38.03-11.72,6.9-28.04-2.11-30.9-14.26-4.21-11.3-3.75-29.95,9.61-33.8-2.23-10.85-8.21-20.96-11.38-31.74-2.05-6.73-4.26-13.16-2.97-20.63,1.44-6.72,4-13,7.17-18.81,13.81-24.36,34.47-43.12,56.47-59.88,2.99,6.34,4.81,13.06,5.48,19.92,2.96-3.08,5.77-6.36,8.44-9.77,3.35-4.27,6.5-8.8,9.46-13.42,2.79,2.94,4.77,5.39,4.77,5.39,0,0-7.15,29.58-32.12,40.08,0,0-2.45-8.7-2.05-21.58-18.74,16.91-44.75,46.83-41.63,63.09,3.12,16.26,18.08,58.28,6.25,58.4-11.84.13-9.76,25.37,1.94,29.39,7.16,2.48,9.24-9.49,13.92-5.59,4.69,3.91,11.99,43.38,75.47,44.29Z"/>
            <path class="cls-1" d="M234.5,178.28c-2.96-10.55-4.51-21.56-5.47-32.77-1.43-11-1.38-22.34-7.54-32.29,3.78-12.05,1.11-24.81-2.54-36.49-1.79-5.97-4.92-12.38-7.57-18.16-3.22,5.14-6.69,10.32-10.39,15.28-.16-12.13-4.59-24.17-10.46-34.78-5.08,9.52-13.36,17.24-22.31,23.59-.53-10.22-4.98-19.85-10.53-28.5-4.71,8.09-9.92,16.26-15.74,23.67-2.7,3.46-5.56,6.78-8.55,9.91-.68-6.96-2.52-13.77-5.55-20.19-22.3,16.98-43.23,35.99-57.23,60.68-3.23,5.88-5.82,12.26-7.28,19.06-1.3,7.57.93,14.09,3.01,20.91,3.21,10.93,9.27,21.17,11.53,32.17-13.54,3.92-14.02,22.81-9.74,34.27,2.9,12.31,19.44,21.44,31.32,14.45,13.55,32.56,52.45,44.07,84.83,36.56,31.92-8.37,47.22-40.35,51.34-69.27.63-5.91.48-12.1-1.15-18.09ZM175.72,259.24c-18.53.79-37.71-1.8-52.93-12.8-8.29-5.97-15.17-14.2-18.56-23.88-.17-1.19-1.64-2.96-3-3.12-1.67-.08-3.85,1.13-5.03,2.52-7.49,6.22-17.79-1.85-20.65-9.7-2.75-8.55-4.71-23.87,7.07-24.89l1.45-.1c1.07-.08,1.91-.93,1.99-1.99.05-.72.1-1.37.1-1.37.09-7.54-3.21-13.56-5.62-20.28-3.92-10.79-10.73-23.73-9.57-34.78,1.25-5.8,3.52-11.51,6.5-16.92,11.34-20.16,28.74-37.16,46.82-51.72,1.73,6.78,1.79,14.22,1.45,21.23-.07,1.54,1.72,2.42,2.89,1.43,11.26-9.55,20.71-20.84,28.69-33.17,2.59,6.28,3.99,13.31,2.88,19.76,0,0-.53,3.16-.95,5.64-.19,1.13,1.04,1.95,2.01,1.34,10.14-6.34,20.15-12.86,27.96-21.97,3.81,9.93,5.53,21.1,2.44,31.29l-3.78,13.31c-.2.7.68,1.18,1.16.65,0,0,17.11-8.4,20.98-24.97.55,1.46,1.09,2.94,1.57,4.4,3.72,10.98,5.66,23.65,1.93,34.39-.29.84-.11,1.76.51,2.39.19.19,7.22,8.73,9.62,30.13,1.25,11.15,4.36,22.23,5.04,33.69,2.92,49.23-29.02,76.49-52.96,79.49Z"/>
          </g>
        </g>
        <g>
          <path class="cls-1" d="M135.94,189.03c8.04-1.84,17.06-6.04,20.2-14.21.43-1.07,1.63-1.59,2.7-1.16,1.14.39,1.33,1.65,1.48,2.65.58,3.03-.38,6.06-1.91,8.58-4.79,6.87-13.55,10.1-21.68,8.51-2.78-.08-3.56-3.57-.8-4.37h0Z"/>
          <path class="cls-1" d="M194.33,168.24c3.81,6.68,12.07,10.48,19.52,7.79,1.86-.56,3.26,1.97,1.84,3.25,0,0-.62.6-.62.6-3.8,3.9-10.13,4.2-14.86,1.79-4.76-2.29-8.22-6.37-9.43-11.5-.44-1.18.09-2.58,1.39-2.86.87-.2,1.73.2,2.16.93h0Z"/>
          <path class="cls-1" d="M181.06,222.74c-10.12,2.7-22.41.51-28.85-8.22,1.41-.64,2.94-1.06,4.37-1.25,2.4-.26,2.3-3.9-.14-4.01-5.61-.42-11.7,2.62-13.46,8.24-.68,1.94-.51,3.91-.16,5.7.37,2.32,4.02,2.04,4.01-.33.03-1.28.07-2.57.56-3.66.29-.8.74-1.49,1.28-2.12,1.14,2.9,3.03,5.23,5.29,7.25,7.75,6.44,19.31,6.85,28.05,2.33,2.34-.79,1.51-4.36-.96-3.93Z"/>
          <path class="cls-6" d="M204,204.54s2.28,9.57-8.11,10.58c-10.39,1.02-9.85-6.52-7.84-6.73,7.3.97,12.39.55,15.95-3.85Z"/>
          <path class="cls-1" d="M190.15,195.05c8.24-2.1,19.94,3.8,12,13.13-2.47,2.9-14.54,7.77-15.18,1.75.08-4.93,5.81-3.72,9.44-4.89,8.6-3.21.95-7.73-6.27-6.88-1.93.23-1.93-3.07,0-3.1h0Z"/>
        </g>
      </g>
    </g>
  </g>
</svg>